<?xml version="1.0" standalone="no"?>
<!DOCTYPE svg PUBLIC "-//W3C//DTD SVG 20010904//EN"
 "http://www.w3.org/TR/2001/REC-SVG-20010904/DTD/svg10.dtd">
<svg version="1.0" xmlns="http://www.w3.org/2000/svg"
 width="320.000000pt" height="320.000000pt" viewBox="0 0 320.000000 320.000000"
 preserveAspectRatio="xMidYMid meet">
<metadata>
Created by potrace 1.14, written by Peter Selinger 2001-2017
</metadata>
<g transform="translate(0.000000,320.000000) scale(0.100000,-0.100000)"
fill="#000000" stroke="none">
<path d="M799 3137 c-35 -34 -100 -95 -144 -136 -44 -41 -108 -101 -143 -134
l-62 -59 -1 -662 c0 -363 2 -670 5 -682 2 -12 7 -45 11 -75 7 -61 58 -246 81
-299 9 -19 24 -51 33 -71 l17 -36 -36 3 c-37 2 -289 -74 -315 -96 -28 -24 12
-165 78 -270 57 -92 153 -171 231 -191 72 -18 71 -17 50 -41 -30 -33 -116 -85
-164 -98 l-43 -12 29 -23 c39 -32 87 -55 130 -62 18 -3 34 -11 34 -18 0 -17
-57 -125 -77 -147 -15 -17 -14 -18 4 -18 30 0 133 35 192 65 61 30 122 83 151
130 l21 34 87 -44 c112 -56 238 -102 333 -120 109 -21 158 -27 259 -30 251 -6
477 46 686 157 l72 38 21 -34 c49 -79 154 -146 289 -184 l73 -21 -20 32 c-32
50 -71 129 -71 144 0 7 11 13 25 13 27 0 104 36 144 68 l24 19 -55 18 c-57 17
-173 99 -163 114 2 5 20 12 39 15 111 21 238 139 296 276 32 77 50 161 39 181
-11 22 -250 102 -306 103 -24 0 -43 3 -43 6 0 4 11 29 24 56 37 76 84 237 101
347 15 91 19 445 15 1309 l0 106 -57 55 c-32 29 -94 87 -137 128 -44 41 -91
85 -106 99 -14 14 -47 44 -72 66 l-45 41 -734 1 -735 0 -65 -61z"/>
</g>
</svg>
